<svg width="54" height="55" viewBox="0 0 54 55" fill="none" xmlns="http://www.w3.org/2000/svg">
<path d="M9 7.25C7.75737 7.25 6.75 8.25737 6.75 9.5V23C6.75 24.2427 7.75737 25.25 9 25.25H22.5C23.7427 25.25 24.75 24.2427 24.75 23V9.5C24.75 8.25737 23.7427 7.25 22.5 7.25H9ZM9 29.75C7.75737 29.75 6.75 30.7573 6.75 32V45.5C6.75 46.7427 7.75737 47.75 9 47.75H22.5C23.7427 47.75 24.75 46.7427 24.75 45.5V32C24.75 30.7573 23.7427 29.75 22.5 29.75H9ZM31.5 29.75C30.2573 29.75 29.25 30.7573 29.25 32V45.5C29.25 46.7427 30.2573 47.75 31.5 47.75H45C46.2427 47.75 47.25 46.7427 47.25 45.5V32C47.25 30.7573 46.2427 29.75 45 29.75H31.5ZM36 25.25V18.5H29.25V14H36V7.25H40.5V14H47.25V18.5H40.5V25.25H36Z" fill="white"/>
</svg>
