<svg width="54" height="55" viewBox="0 0 54 55" fill="none" xmlns="http://www.w3.org/2000/svg">
<path d="M22.5 18.5H31.5V15.125C31.5 10.7758 35.0257 7.25 39.375 7.25C43.7243 7.25 47.25 10.7758 47.25 15.125C47.25 19.4742 43.7243 23 39.375 23H36V32H39.375C43.7243 32 47.25 35.5257 47.25 39.875C47.25 44.2243 43.7243 47.75 39.375 47.75C35.0257 47.75 31.5 44.2243 31.5 39.875V36.5H22.5V39.875C22.5 44.2243 18.9742 47.75 14.625 47.75C10.2758 47.75 6.75 44.2243 6.75 39.875C6.75 35.5257 10.2758 32 14.625 32H18V23H14.625C10.2758 23 6.75 19.4742 6.75 15.125C6.75 10.7758 10.2758 7.25 14.625 7.25C18.9742 7.25 22.5 10.7758 22.5 15.125V18.5ZM18 18.5V15.125C18 13.261 16.489 11.75 14.625 11.75C12.761 11.75 11.25 13.261 11.25 15.125C11.25 16.989 12.761 18.5 14.625 18.5H18ZM18 36.5H14.625C12.761 36.5 11.25 38.0111 11.25 39.875C11.25 41.7389 12.761 43.25 14.625 43.25C16.489 43.25 18 41.7389 18 39.875V36.5ZM36 18.5H39.375C41.2389 18.5 42.75 16.989 42.75 15.125C42.75 13.261 41.2389 11.75 39.375 11.75C37.5111 11.75 36 13.261 36 15.125V18.5ZM36 36.5V39.875C36 41.7389 37.5111 43.25 39.375 43.25C41.2389 43.25 42.75 41.7389 42.75 39.875C42.75 38.0111 41.2389 36.5 39.375 36.5H36ZM22.5 23V32H31.5V23H22.5Z" fill="white"/>
</svg>
